# Blender 4.5.3 LTS
# www.blender.org
mtllib Floor1.mtl
o Plane.008
v 4.028549 10.860277 9.872414
v 4.028549 10.860277 -9.872414
v -26.429853 10.859979 9.872287
v -26.429853 10.859979 -9.872287
v 5.617872 11.480871 5.828796
v 5.615476 11.489943 3.957014
v 4.028549 9.438701 -13.227670
v -26.429853 9.434382 -13.227797
v 4.028550 9.438701 13.227668
v -26.429853 9.434383 13.227795
v 5.617872 8.818348 5.828796
v 5.615476 8.827418 3.957014
v -11.200649 10.860128 9.872350
v -11.200651 10.860128 -9.872350
v -11.200743 9.436541 13.227733
v -11.200745 9.436541 -13.227733
v 5.617872 8.818348 -14.690821
v -28.019175 8.813249 -14.690822
v 5.617872 11.480871 -8.409262
v -28.019175 11.480871 -8.409262
v -11.200649 11.480871 8.409262
v -28.019175 11.480871 8.409262
v -11.200651 11.480871 -8.409262
v 5.617873 8.818348 14.690821
v 5.617873 11.480871 8.409262
v -28.019175 8.813249 14.690819
v -11.200649 8.815798 14.690821
v -11.200651 8.815798 -14.690821
v 2.802088 11.480871 -8.409262
v 2.802088 11.480871 8.409262
v 2.802088 8.817920 14.690821
v 2.802087 8.817920 -14.690821
v 1.478851 10.860250 -9.872402
v 1.478852 10.860250 9.872402
v 1.478837 9.438338 13.227678
v 1.478835 9.438338 -13.227680
v -24.793894 11.480871 8.409262
v -24.793894 8.813738 14.690819
v -24.793894 8.813738 -14.690822
v -24.793894 11.480871 -8.409262
v -23.509354 10.860007 9.872298
v -23.509373 9.434796 13.227783
v -23.509373 9.434796 -13.227784
v -23.509354 10.860007 -9.872298
v -1.145453 11.480871 7.562370
v -3.154015 11.480871 7.524575
v -2.911266 11.480871 6.222466
v -1.315133 11.480871 5.244616
v -0.808974 11.480871 5.950363
v -20.774157 11.480871 5.501565
v -20.669485 11.480871 3.749519
v -21.862728 11.480871 4.241363
v -20.019247 11.480871 1.499674
v -19.261879 11.480871 3.812526
v -1.214031 11.480871 5.833628
v -2.286643 11.480871 5.226312
v -2.113301 11.480871 7.270227
v -1.145453 11.611131 7.562370
v -3.154015 11.611131 7.524575
v -2.911266 11.611131 6.222466
v -1.315133 11.611131 5.244616
v -0.808974 11.611131 5.950363
v -1.214031 11.611131 5.833628
v -2.286643 11.611131 5.226312
v -2.113301 11.611131 7.270227
v 4.028548 10.886085 9.883353
v 4.028547 10.886085 -9.883353
v -26.429853 10.885779 9.883242
v -26.429853 10.885779 -9.883242
v 5.645903 11.480871 5.828778
v 5.643507 11.489940 3.956998
v 4.028546 9.464508 -13.238609
v -26.429853 9.460183 -13.238752
v 4.028547 9.464508 13.238608
v -26.429853 9.460184 13.238751
v 5.645903 8.818348 5.828778
v 5.643507 8.827415 3.956998
v -11.200651 10.885933 9.883298
v -11.200653 10.885933 -9.883298
v -11.200747 9.462345 13.238681
v -11.200747 9.462345 -13.238681
v 5.624793 8.843356 -14.701423
v -28.026121 8.838246 -14.701434
v 5.636515 11.501386 -8.413428
v -28.037809 11.501390 -8.413437
v -11.200649 11.508340 8.414848
v -28.037809 11.501390 8.413437
v -11.200651 11.508340 -8.414848
v 5.624802 8.843354 14.701423
v 5.636510 11.501389 8.413432
v -28.026121 8.838246 14.701431
v -11.200653 8.841602 14.701769
v -11.200655 8.841602 -14.701769
v 2.802088 11.508340 -8.414846
v 2.802088 11.508340 8.414846
v 2.802085 8.843725 14.701766
v 2.802083 8.843725 -14.701766
v 1.478850 10.886057 -9.883346
v 1.478851 10.886057 9.883346
v 1.478834 9.464145 13.238622
v 1.478832 9.464145 -13.238623
v -24.793894 11.508340 8.414848
v -24.793896 8.839541 14.701769
v -24.793896 8.839541 -14.701771
v -24.793894 11.508340 -8.414848
v -23.509354 10.885810 9.883251
v -23.509375 9.460599 13.238736
v -23.509375 9.460599 -13.238738
v -23.509354 10.885810 -9.883251
v -1.133721 11.496931 7.582123
v -3.160371 11.507332 7.531293
v -2.930712 11.499578 6.214875
v -1.300356 11.497352 5.227417
v -0.797001 11.505168 5.943150
v -20.774157 11.508903 5.501565
v -20.669485 11.508903 3.749519
v -21.862728 11.508903 4.241363
v -20.019247 11.508903 1.499674
v -19.261879 11.508903 3.812526
v -1.197399 11.497825 5.818740
v -2.297199 11.498005 5.206800
v -2.113869 11.499158 7.291464
v -1.131139 11.611131 7.586470
v -3.173280 11.611131 7.544937
v -2.937377 11.611131 6.212273
v -1.296865 11.611131 5.223354
v -0.784964 11.611131 5.935898
v -1.193145 11.611131 5.814932
v -2.299981 11.611131 5.201658
v -2.114050 11.611131 7.298248
vn -1.0000 0.0002 -0.0002
vn 1.0000 -0.0000 -0.0000
vn 0.0001 -0.9204 0.3910
vn -1.0000 -0.0000 -0.0000
vn -1.0000 -0.0000 0.0013
vn 0.0001 -0.9204 -0.3910
vn -0.0000 -1.0000 -0.0000
vn 0.0001 -0.9207 -0.3904
vn 0.0001 -0.9207 0.3904
vn 0.0001 -0.9207 0.3902
vn 0.0001 -0.9204 0.3909
vn -0.0000 -0.9205 -0.3907
vn -0.0000 -0.9206 0.3905
vn 0.0001 -0.9207 -0.3902
vn 0.0001 -0.9204 -0.3909
vn 0.0001 -0.9206 -0.3906
vn 0.0001 -0.9205 0.3907
vn -0.0000 -0.9206 -0.3905
vn -0.0000 -0.9206 0.3906
vn 0.0001 -0.9206 -0.3905
vn 0.0001 -0.9206 0.3905
vn -0.0000 -0.9205 0.3907
vn 0.0001 -0.9206 0.3906
vn 0.0001 -0.9205 -0.3907
vn -0.0000 -0.9206 -0.3906
vn 0.0001 -0.9205 -0.3908
vn 0.0001 -0.9205 0.3908
vn 0.2890 -0.0000 -0.9573
vn -0.9856 -0.0000 0.1692
vn -0.2769 -0.0000 0.9609
vn 0.9831 -0.0000 0.1833
vn 0.8472 -0.0000 0.5312
vn -0.9789 -0.0000 -0.2043
vn -0.0188 -0.0000 0.9998
vn -0.2374 -0.0000 -0.9714
vn 1.0000 -0.0012 -0.0008
vn -1.0000 -0.0044 -0.0000
vn -0.0001 0.9204 -0.3910
vn 1.0000 0.0009 0.0027
vn 1.0000 -0.0000 -0.0013
vn -0.0001 0.9204 0.3910
vn 0.0025 1.0000 -0.0000
vn -0.0000 1.0000 -0.0000
vn -0.0001 0.9207 0.3904
vn -0.0001 0.9207 -0.3904
vn 0.0025 0.9210 -0.3896
vn -0.0027 0.9207 -0.3904
vn -0.0011 0.9211 0.3893
vn 0.0013 0.9211 -0.3892
vn 0.0025 0.9210 0.3896
vn -0.0027 0.9207 0.3904
vn -0.0001 0.9206 0.3906
vn -0.0003 0.9205 -0.3908
vn -0.0000 0.9207 0.3902
vn -0.0000 0.9207 -0.3903
vn -0.0000 0.9206 0.3906
vn -0.0001 0.9206 -0.3905
vn -0.0000 0.9206 -0.3906
vn -0.0001 0.9206 0.3905
vn 0.0013 0.9211 0.3892
vn -0.0000 0.9207 -0.3902
vn -0.0001 0.9207 -0.3902
vn -0.0001 0.9207 0.3902
vn -0.0000 1.0000 0.0001
vn -0.0011 0.9211 -0.3893
vn -0.0001 0.9206 -0.3906
vn -0.0003 0.9205 0.3908
vn -0.0000 0.9207 0.3903
vn -0.0021 1.0000 -0.0000
vn -0.0001 0.9205 0.3908
vn -0.0001 0.9205 -0.3908
vn -0.0006 1.0000 -0.0026
vn -0.2826 -0.0442 0.9582
vn 0.9843 -0.0395 -0.1720
vn 0.2903 -0.0697 -0.9544
vn -0.9818 -0.0804 -0.1723
vn -0.8450 -0.0539 -0.5320
vn 0.9773 -0.0622 0.2027
vn 0.0211 -0.0406 -0.9990
vn 0.2241 -0.0784 0.9714
vn -0.4021 0.9156 -0.0044
vn 0.0001 1.0000 0.0048
vn -0.4022 0.9155 0.0002
vn 0.0001 -0.3907 0.9205
vn -0.0000 -1.0000 -0.0048
vn 0.5814 -0.8136 0.0018
vn 0.0001 -0.3907 -0.9205
vn -0.9635 -0.2677 -0.0000
vn 0.5818 -0.8134 -0.0004
vn 0.7401 -0.6725 -0.0000
vn 0.0001 -0.3905 0.9206
vn 0.0001 -0.3905 -0.9206
vn 0.0001 -0.3904 0.9206
vn 0.0001 -0.3904 -0.9206
vn 0.0001 -0.3906 0.9206
vn 0.0001 -0.3906 -0.9206
vn 0.9982 -0.0000 0.0596
vn -0.3811 -0.0000 -0.9245
vn 0.8299 -0.0000 0.5580
vn -0.9503 -0.0000 0.3112
vn -0.7450 -0.0000 -0.6670
vt 0.526075 0.000000
vt 0.525493 0.076056
vt 0.220860 0.079575
vt 0.046079 0.028398
vt 0.778865 1.000000
vt 0.058374 1.000000
vt 0.229054 0.935412
vt 0.611160 0.939861
vt 0.072265 0.853549
vt 0.171738 0.834449
vt 0.184573 0.909078
vt 0.090670 0.937629
vt 0.819600 0.050193
vt 0.638696 0.076617
vt 0.575819 0.075897
vt 0.580371 0.001050
vt 0.667247 0.841166
vt 0.764048 0.858787
vt 0.746871 0.940376
vt 0.654810 0.913712
vt 0.211883 0.145748
vt 0.643024 0.148954
vt 0.216562 0.860852
vt 0.188095 0.509788
vt 0.649519 0.516420
vt 0.516925 0.726708
vt 0.456823 0.744209
vt 0.525344 0.792423
vt 0.623633 0.867567
vt 0.686793 0.180650
vt 0.785135 0.172609
vt 0.791655 0.520745
vt 0.691661 0.517927
vt 0.068613 0.158386
vt 0.167297 0.174692
vt 0.146100 0.510065
vt 0.045229 0.510589
vt 0.176841 0.109200
vt 0.080804 0.085718
vt 0.779688 0.100942
vt 0.682128 0.113165
vt 0.835997 0.522147
vt 0.804468 0.903354
vt 0.030770 0.899773
vt 0.828493 0.132379
vt -0.000000 0.510878
vt 0.026893 0.113220
vt 0.582734 0.239146
vt 0.577194 0.249676
vt 0.562886 0.255832
vt 0.562198 0.283968
vt 0.588757 0.300240
vt 0.622780 0.303079
vt 0.624655 0.266780
vt 0.624893 0.244449
vt 0.513938 0.762244
vt 0.557836 0.766603
vt 0.622871 0.268102
vt 0.621397 0.248402
vt 0.579426 0.252318
vt 0.566663 0.258320
vt 0.584245 0.242099
vt 0.589518 0.296576
vt 0.618825 0.297759
vt 0.565074 0.281963
s 0
usemtl Material
f 12/1/1 6/2/1 19/3/1 17/4/1
f 26/5/2 18/6/2 20/7/2 22/8/2
f 43/9/3 44/10/3 4/11/3 8/12/3
f 24/13/4 25/14/4 5/15/4 11/16/4
f 11/16/5 5/15/5 6/2/5 12/1/5
f 41/17/6 42/18/6 10/19/6 3/20/6
f 29/21/7 19/3/7 25/14/7 30/22/7
f 40/23/7 23/24/7 21/25/7 54/26/7 53/27/7 52/28/7 37/29/7
f 34/30/8 35/31/8 15/32/8 13/33/8
f 36/34/9 33/35/9 14/36/9 16/37/9
f 2/38/10 7/39/10 17/4/10 19/3/10
f 8/12/11 4/11/11 20/7/11 18/6/11
f 41/17/12 3/20/12 22/8/12 37/29/12
f 33/35/13 2/38/13 19/3/13 29/21/13
f 9/40/14 1/41/14 25/14/14 24/13/14
f 3/20/15 10/19/15 26/5/15 22/8/15
f 42/18/16 15/32/16 27/42/16 38/43/16
f 43/9/17 8/12/17 18/6/17 39/44/17
f 34/30/18 13/33/18 21/25/18 30/22/18
f 44/10/19 14/36/19 23/24/19 40/23/19
f 35/31/20 9/40/20 24/13/20 31/45/20
f 36/34/21 16/37/21 28/46/21 32/47/21
f 7/39/21 36/34/21 32/47/21 17/4/21
f 15/32/20 35/31/20 31/45/20 27/42/20
f 1/41/18 34/30/18 30/22/18 25/14/18
f 14/36/13 33/35/13 29/21/13 23/24/13
f 7/39/10 2/38/10 33/35/10 36/34/10
f 1/41/14 9/40/14 35/31/14 34/30/14
f 23/24/7 29/21/7 30/22/7 49/48/7 55/49/7 48/50/7 56/51/7 47/52/7 46/53/7 21/25/7
f 4/11/22 44/10/22 40/23/22 20/7/22
f 16/37/23 43/9/23 39/44/23 28/46/23
f 10/19/24 42/18/24 38/43/24 26/5/24
f 13/33/25 41/17/25 37/29/25 21/25/25
f 20/7/7 40/23/7 37/29/7 22/8/7
f 13/33/26 15/32/26 42/18/26 41/17/26
f 16/37/27 14/36/27 44/10/27 43/9/27
f 21/25/7 46/53/7 57/54/7 45/55/7 49/48/7 30/22/7
f 37/29/7 52/28/7 51/56/7 50/57/7 54/26/7 21/25/7
f 45/55/28 57/54/28 65/58/28 58/59/28
f 48/50/29 55/49/29 63/60/29 61/61/29
f 55/49/30 49/48/30 62/62/30 63/60/30
f 46/53/31 47/52/31 60/63/31 59/64/31
f 47/52/32 56/51/32 64/65/32 60/63/32
f 49/48/33 45/55/33 58/59/33 62/62/33
f 56/51/34 48/50/34 61/61/34 64/65/34
f 57/54/35 46/53/35 59/64/35 65/58/35
f 77/1/36 82/4/36 84/3/36 71/2/36
f 91/5/37 87/8/37 85/7/37 83/6/37
f 108/9/38 73/12/38 69/11/38 109/10/38
f 89/13/39 76/16/39 70/15/39 90/14/39
f 76/16/40 77/1/40 71/2/40 70/15/40
f 106/17/41 68/20/41 75/19/41 107/18/41
f 94/21/42 95/22/42 90/14/42 84/3/42
f 105/23/43 102/29/43 117/28/43 118/27/43 119/26/43 86/25/43 88/24/43
f 99/30/44 78/33/44 80/32/44 100/31/44
f 101/34/45 81/37/45 79/36/45 98/35/45
f 67/38/46 84/3/46 82/4/46 72/39/46
f 73/12/47 83/6/47 85/7/47 69/11/47
f 106/17/48 102/29/48 87/8/48 68/20/48
f 98/35/49 94/21/49 84/3/49 67/38/49
f 74/40/50 89/13/50 90/14/50 66/41/50
f 68/20/51 87/8/51 91/5/51 75/19/51
f 107/18/52 103/43/52 92/42/52 80/32/52
f 108/9/53 104/44/53 83/6/53 73/12/53
f 99/30/54 95/22/54 86/25/54 78/33/54
f 109/10/55 105/23/55 88/24/55 79/36/55
f 100/31/56 96/45/56 89/13/56 74/40/56
f 101/34/57 97/47/57 93/46/57 81/37/57
f 72/39/58 82/4/58 97/47/58 101/34/58
f 80/32/59 92/42/59 96/45/59 100/31/59
f 66/41/60 90/14/60 95/22/60 99/30/60
f 79/36/61 88/24/61 94/21/61 98/35/61
f 72/39/62 101/34/62 98/35/62 67/38/62
f 66/41/63 99/30/63 100/31/63 74/40/63
f 88/24/64 86/25/64 111/53/64 112/52/64 121/51/64 113/50/64 120/49/64 114/48/64 95/22/64 94/21/64
f 69/11/65 85/7/65 105/23/65 109/10/65
f 81/37/66 93/46/66 104/44/66 108/9/66
f 75/19/67 91/5/67 103/43/67 107/18/67
f 78/33/68 86/25/68 102/29/68 106/17/68
f 85/7/69 87/8/69 102/29/69 105/23/69
f 78/33/70 106/17/70 107/18/70 80/32/70
f 81/37/71 108/9/71 109/10/71 79/36/71
f 86/25/72 95/22/72 114/48/72 110/55/72 122/54/72 111/53/72
f 102/29/64 86/25/64 119/26/64 115/57/64 116/56/64 117/28/64
f 110/55/73 123/59/73 130/58/73 122/54/73
f 113/50/74 126/61/74 128/60/74 120/49/74
f 120/49/75 128/60/75 127/62/75 114/48/75
f 111/53/76 124/64/76 125/63/76 112/52/76
f 112/52/77 125/63/77 129/65/77 121/51/77
f 114/48/78 127/62/78 123/59/78 110/55/78
f 121/51/79 129/65/79 126/61/79 113/50/79
f 122/54/80 130/58/80 124/64/80 111/53/80
f 5/15/81 25/14/81 90/14/81 70/15/81
f 6/2/82 5/15/82 70/15/82 71/2/82
f 19/3/83 6/2/83 71/2/83 84/3/83
f 26/5/84 38/43/84 103/43/84 91/5/84
f 11/16/85 12/1/85 77/1/85 76/16/85
f 24/13/86 11/16/86 76/16/86 89/13/86
f 39/44/87 18/6/87 83/6/87 104/44/87
f 18/6/88 26/5/88 91/5/88 83/6/88
f 12/1/89 17/4/89 82/4/89 77/1/89
f 25/14/90 19/3/90 84/3/90 90/14/90
f 27/42/91 31/45/91 96/45/91 92/42/91
f 32/47/92 28/46/92 93/46/92 97/47/92
f 31/45/93 24/13/93 89/13/93 96/45/93
f 17/4/94 32/47/94 97/47/94 82/4/94
f 38/43/95 27/42/95 92/42/95 103/43/95
f 28/46/96 39/44/96 104/44/96 93/46/96
f 50/57/97 51/56/97 116/56/97 115/57/97
f 51/56/98 52/28/98 117/28/98 116/56/98
f 52/28/99 53/27/99 118/27/99 117/28/99
f 53/27/100 54/26/100 119/26/100 118/27/100
f 54/26/101 50/57/101 115/57/101 119/26/101
f 65/58/43 59/64/43 124/64/43 130/58/43
f 59/64/43 60/63/43 125/63/43 124/64/43
f 64/65/43 61/61/43 126/61/43 129/65/43
f 63/60/43 62/62/43 127/62/43 128/60/43
f 62/62/43 58/59/43 123/59/43 127/62/43
f 61/61/43 63/60/43 128/60/43 126/61/43
f 60/63/43 64/65/43 129/65/43 125/63/43
f 58/59/43 65/58/43 130/58/43 123/59/43
o Plane.020
v 5.775671 -2.437277 14.774317
v 5.775670 -2.437277 -14.774317
v -28.052553 -2.437277 14.774316
v -28.052553 -2.437277 -14.774319
v -11.138443 -2.437277 -14.774317
v -11.138441 -2.437277 14.774317
v 2.070453 -2.437277 14.774317
v 2.070451 -2.437277 -14.774317
v -23.935511 -2.437277 -14.774319
v -23.935511 -2.437277 14.774316
v 5.775671 -3.143729 14.774317
v 5.775670 -3.143729 -14.774317
v -28.052553 -3.143729 14.774316
v -28.052553 -3.143729 -14.774319
v -11.138443 -3.143729 -14.774317
v -11.138441 -3.143729 14.774317
v 2.070453 -3.143729 14.774317
v 2.070451 -3.143729 -14.774317
v -23.935511 -3.143729 -14.774319
v -23.935511 -3.143729 14.774316
vn 0.5774 0.5774 0.5774
vn 0.5774 0.5774 -0.5774
vn -0.5774 0.5774 0.5774
vn -0.5774 0.5774 -0.5774
vn -0.0000 0.7071 -0.7071
vn -0.0000 0.7071 0.7071
vn 0.7071 -0.0000 0.7071
vn 0.7071 -0.0000 -0.7071
vn -0.7071 -0.0000 0.7071
vn -0.7071 -0.0000 -0.7071
vn -0.0000 -0.0000 -1.0000
vn -0.0000 -0.0000 1.0000
vt 0.500000 0.079714
vt 0.011675 0.079714
vt 0.011675 0.011675
vt 0.500000 0.011675
vt 0.500000 0.509492
vt 0.011675 0.509492
vt 0.011675 0.291200
vt 0.500000 0.291200
vt 0.011675 0.570725
vt 0.500000 0.570725
vt 0.511675 0.509492
vt 0.511675 0.570725
vt 0.500000 0.582400
vt 0.011675 0.582400
vt 0.000000 0.291200
vt 0.000000 0.079714
vt 0.011675 0.000000
vt 0.500000 0.000000
vt 0.511675 0.291200
vt 0.000000 0.509492
vt 0.511675 0.011675
vt 0.511675 0.079714
vt 0.000000 0.011675
vt -0.000000 0.570725
s 1
usemtl Material
f 140/66/107 139/67/106 134/68/105 133/69/104
f 137/70/107 138/71/106 135/72/106 136/73/107
f 132/74/103 138/71/106 137/70/107 131/75/102
f 136/73/107 135/72/106 139/67/106 140/66/107
f 137/70/107 147/76/113 141/77/108 131/75/102
f 131/75/102 141/78/108 142/79/109 132/74/103
f 135/72/106 145/80/112 149/81/112 139/67/106
f 134/68/105 144/82/111 143/83/110 133/69/104
f 136/73/107 146/84/113 147/76/113 137/70/107
f 138/71/106 148/85/112 145/80/112 135/72/106
f 133/69/104 143/86/110 150/87/113 140/66/107
f 139/67/106 149/81/112 144/88/111 134/68/105
f 132/74/103 142/89/109 148/85/112 138/71/106
f 140/66/107 150/87/113 146/84/113 136/73/107
