# Blender 4.3.2
# www.blender.org
mtllib RUBBLE_PART2.mtl
o RUBBLE_PART2
v 1.371956 -0.033468 1.064461
v 1.327418 0.059999 0.710025
v 1.317361 0.215757 0.590164
v 0.810721 -0.050260 0.810050
v 1.269383 -0.022183 1.442181
v 1.240544 0.265090 1.409373
v 1.564160 0.297130 1.897572
v 0.744841 0.326852 0.919642
v 0.715673 0.228158 1.752880
v 1.519185 0.016337 1.900146
v -0.093310 0.168319 1.654558
v 0.243725 0.075045 1.745841
v 0.391033 0.072092 0.675505
v -1.049379 0.048131 1.690863
v 1.276077 0.028499 -0.133548
v -0.504120 -0.049894 1.094527
v -0.741554 0.045716 -0.232222
v 0.370159 0.064682 0.055826
v 1.263583 0.057338 0.159346
v 1.254795 0.217348 -0.087745
v 0.976858 0.264292 -0.599352
v 0.235912 0.210185 0.610596
v -0.642555 0.354620 1.103435
v -0.359456 0.337978 -0.625833
v -0.839483 0.213087 -1.472238
v -1.001496 0.213173 -1.413584
v 0.279171 0.379929 -1.082376
v -1.029825 0.191884 0.092257
v -1.074987 0.291781 1.722275
v -1.092993 0.038955 0.658714
v -1.013095 0.116318 -1.404402
v -0.867034 0.101199 -1.416665
v -0.395063 0.049406 -1.411141
v 0.505071 -0.012907 -1.044397
v -0.273621 0.052832 -1.915228
v -0.579543 0.040246 -2.042718
v -0.803190 0.099306 -1.666628
v 0.097297 -0.027604 -1.473919
v 0.321064 0.016506 -1.963742
v 0.698355 0.180127 -1.068839
v 0.206975 0.332320 -1.517879
v 0.255152 0.278621 -1.817145
v 0.440671 0.334945 -2.079399
v -0.173501 0.217282 -2.055270
v -0.292687 0.229158 -1.914287
v -0.188124 0.249690 -2.608665
v -0.198546 0.046686 -2.099891
v 0.557029 0.066427 -2.554471
v -0.216931 0.039229 -2.653654
v 0.545209 0.258091 -2.550841
v -0.432840 0.220428 -1.932525
v -0.543015 0.239966 -2.088665
v -0.778625 0.210479 -1.673932
v 0.981206 0.273568 -0.942289
v 0.952965 0.031262 -0.969661
v 0.915070 0.073706 -0.656141
vn 0.1507 -0.9511 -0.2697
vn 0.9901 -0.0399 -0.1349
vn 0.9397 0.3351 0.0679
vn 0.0146 -0.9993 0.0338
vn 0.9584 0.1255 0.2565
vn -0.0788 0.9968 -0.0132
vn 0.8327 0.0204 -0.5533
vn 0.1660 0.9852 -0.0438
vn 0.0073 0.9930 0.1179
vn -0.1709 0.0364 0.9846
vn -0.0871 0.9896 0.1142
vn -0.1031 0.2738 0.9563
vn -0.1394 0.3879 0.9111
vn -0.0975 -0.9952 -0.0107
vn -0.2583 -0.9655 -0.0329
vn -0.0597 -0.9915 0.1159
vn 0.3157 -0.8469 0.4279
vn 0.1291 -0.9786 0.1601
vn -0.0372 -0.9992 0.0132
vn 0.0422 -0.9941 0.0997
vn 0.0938 -0.9917 -0.0883
vn 0.0141 -0.9998 0.0115
vn -0.1836 -0.9413 -0.2834
vn -0.3536 -0.8874 0.2960
vn 0.2051 -0.9786 -0.0190
vn 0.9931 -0.0244 -0.1150
vn 0.9940 0.1042 0.0321
vn 0.9920 -0.0872 -0.0918
vn 0.0406 0.9968 0.0694
vn 0.8674 0.2074 -0.4522
vn -0.0051 1.0000 0.0028
vn -0.2081 0.9778 -0.0264
vn 0.2202 0.9694 0.1083
vn 0.1724 0.9848 0.0188
vn 0.0534 0.9956 0.0772
vn -0.0112 0.9415 -0.3369
vn 0.0511 0.9855 0.1621
vn -0.2664 0.9624 -0.0529
vn -0.0435 0.9916 -0.1216
vn -0.1205 0.9897 -0.0777
vn -0.2027 0.9792 0.0100
vn -0.9401 0.3406 -0.0129
vn -0.2353 0.9697 -0.0659
vn -0.9686 0.2451 -0.0419
vn -0.9930 -0.1099 0.0429
vn -0.1116 -0.9924 -0.0515
vn -0.1604 -0.9869 0.0156
vn -0.9927 0.1156 -0.0341
vn -0.0837 -0.9957 -0.0406
vn -0.1079 -0.9935 -0.0348
vn -0.1081 -0.9920 -0.0646
vn -0.1189 -0.4180 -0.9006
vn -0.3400 -0.0483 -0.9392
vn -0.0606 -0.9979 -0.0209
vn -0.1327 -0.9783 0.1594
vn -0.1088 -0.9939 -0.0203
vn -0.1600 -0.9861 -0.0452
vn 0.0399 -0.9992 0.0028
vn -0.1584 -0.9855 0.0606
vn -0.0704 -0.9901 -0.1213
vn 0.9097 -0.0035 0.4153
vn 0.5701 -0.6366 -0.5194
vn 0.6009 -0.2748 -0.7506
vn 0.9439 -0.2633 0.1992
vn 0.8224 -0.1059 0.5590
vn -0.1845 0.9796 0.0798
vn -0.0392 0.9824 -0.1826
vn -0.0823 0.9849 -0.1525
vn -0.7234 0.2722 -0.6345
vn -0.9901 0.1364 0.0342
vn -0.1854 0.9807 0.0623
vn -0.9231 -0.0978 -0.3720
vn -0.0603 -0.9981 0.0087
vn -0.9912 0.1290 0.0312
vn -0.0324 -0.9948 -0.0970
vn 0.0335 -0.9994 0.0123
vn 0.0748 0.1987 -0.9772
vn 0.1261 0.0266 -0.9917
vn 0.0014 0.9870 -0.1606
vn 0.9766 0.0563 0.2074
vn 0.9127 -0.2171 0.3462
vn -0.0332 0.9766 -0.2123
vn 0.3826 0.0463 -0.9227
vn 0.0853 0.4684 -0.8794
vn 0.0422 0.9946 0.0947
vn 0.7695 -0.2735 -0.5772
vn -0.1059 0.9890 -0.1035
vn -0.8700 0.0462 -0.4909
vn -0.8390 0.1511 -0.5227
vn -0.1151 0.9922 -0.0476
vn -0.9395 0.1888 -0.2859
vn 0.1748 0.9752 -0.1356
vn 0.4860 -0.5147 -0.7063
vn -0.1166 0.9892 -0.0888
vn 0.3917 0.0581 -0.9183
vn 0.9821 -0.1299 0.1363
vn 0.1442 0.9891 0.0286
vn 0.9509 -0.3094 0.0037
vn 0.0736 -0.9871 0.1425
vn 0.1279 -0.9881 0.0854
vn 0.8153 -0.0941 -0.5713
vn -0.0506 -0.9974 -0.0513
vn 0.1859 -0.3044 -0.9342
vn -0.9623 0.1144 -0.2467
vn -0.0012 -0.9975 0.0702
vn 0.1355 0.9717 0.1934
vn 0.0530 -0.1222 0.9911
vn 0.8738 -0.1442 -0.4645
vt 0.524096 0.716718
vt 0.466984 0.660596
vt 0.521063 0.639447
vt 0.266718 0.235750
vt 0.250949 0.262457
vt 0.271012 0.157878
vt 0.235264 0.095955
vt 0.511948 0.795651
vt 0.260191 0.083208
vt 0.186640 0.048124
vt 0.245866 0.015557
vt 0.192132 0.201296
vt 0.249532 -0.000000
vt 0.110534 0.068951
vt 0.142675 0.034616
vt 0.403676 0.850322
vt 0.422577 0.629514
vt 0.368659 0.827742
vt 0.536100 0.895969
vt 0.271012 0.823823
vt 0.328946 0.705511
vt 0.422131 0.501816
vt 0.514462 0.466832
vt 0.513087 0.526428
vt 0.311282 0.435686
vt 0.265559 0.357231
vt 0.245652 0.405221
vt 0.263967 0.422560
vt 0.216575 0.517333
vt 0.143208 0.265671
vt 0.059823 0.172753
vt 0.078356 0.511584
vt 0.140588 0.614859
vt 0.014178 0.358653
vt 0.007923 0.661708
vt 0.020834 0.681966
vt -0.000000 0.246317
vt 0.026062 0.064320
vt 0.018146 0.045683
vt 0.271012 0.611810
vt -0.000000 0.663799
vt 0.289237 0.199797
vt 0.350252 0.202888
vt 0.304868 0.200198
vt 0.007647 0.686561
vt 0.438367 0.279177
vt 0.398569 0.184389
vt 0.311948 0.155402
vt 0.359530 0.112850
vt 0.332620 0.088845
vt 0.405447 0.090300
vt 0.423748 0.114089
vt 0.462053 0.260331
vt 0.430299 0.155022
vt 0.427800 0.069033
vt 0.132888 0.787927
vt 0.152893 0.857043
vt 0.077032 0.838528
vt 0.131106 0.709308
vt 0.065431 0.795131
vt 0.056413 0.855545
vt 0.076098 0.968200
vt 0.052730 0.817208
vt 0.365917 0.081395
vt 0.060373 1.000000
vt 0.411435 0.011733
vt 0.361893 0.005907
vt 0.158935 0.974244
vt 0.417456 -0.000000
vt 0.053444 0.781987
vt 0.034955 0.789917
vt 0.027226 0.723827
vt 0.044477 0.781683
vt 0.018466 0.729788
vt 0.210879 0.585670
vt 0.198794 0.644805
vt 0.229320 0.611717
vt 0.235662 0.545174
vt 0.478263 0.360443
vt 0.481650 0.300450
s 0
usemtl CONCRETE
f 1/1/1 4/2/1 2/3/1
f 2/4/2 3/5/2 1/6/2
f 1/6/3 3/5/3 6/7/3
f 1/1/4 5/8/4 4/2/4
f 1/6/5 6/7/5 5/9/5
f 6/7/6 9/10/6 7/11/6
f 6/7/7 7/11/7 5/9/7
f 6/7/8 3/5/8 8/12/8
f 9/10/9 6/7/9 8/12/9
f 10/13/10 7/11/10 9/10/10
f 11/14/11 9/10/11 8/12/11
f 10/13/12 9/10/12 12/15/12
f 9/10/13 11/14/13 12/15/13
f 5/8/14 12/16/14 13/17/14
f 12/16/15 11/18/15 13/17/15
f 12/16/16 5/8/16 10/19/16
f 13/17/17 14/20/17 16/21/17
f 11/18/18 14/20/18 13/17/18
f 18/22/19 15/23/19 13/17/19
f 15/23/20 19/24/20 13/17/20
f 16/21/21 17/25/21 13/17/21
f 13/17/22 17/25/22 18/22/22
f 13/17/23 19/24/23 4/2/23
f 4/2/24 5/8/24 13/17/24
f 2/3/25 4/2/25 19/24/25
f 19/26/26 3/5/26 2/4/26
f 20/27/27 19/26/27 15/28/27
f 19/26/28 20/27/28 3/5/28
f 20/27/29 21/29/29 22/30/29
f 21/29/30 20/27/30 15/28/30
f 20/27/31 22/30/31 3/5/31
f 22/30/32 11/14/32 8/12/32
f 22/30/33 23/31/33 11/14/33
f 23/31/34 22/30/34 24/32/34
f 22/30/35 21/29/35 24/32/35
f 3/5/36 22/30/36 8/12/36
f 24/32/37 21/29/37 27/33/37
f 28/34/38 23/31/38 24/32/38
f 26/35/39 24/32/39 25/36/39
f 24/32/40 27/33/40 25/36/40
f 28/34/41 24/32/41 26/35/41
f 28/34/42 26/35/42 30/37/42
f 29/38/43 23/31/43 28/34/43
f 29/38/44 28/34/44 30/37/44
f 14/39/45 29/38/45 30/37/45
f 16/21/46 30/40/46 17/25/46
f 14/20/47 30/40/47 16/21/47
f 30/37/48 26/35/48 31/41/48
f 30/40/49 31/42/49 17/25/49
f 17/25/50 31/42/50 33/43/50
f 31/42/51 32/44/51 33/43/51
f 31/41/52 25/36/52 32/45/52
f 26/35/53 25/36/53 31/41/53
f 17/25/54 33/43/54 34/46/54
f 38/47/55 34/46/55 33/43/55
f 32/44/56 37/48/56 33/43/56
f 33/43/57 35/49/57 38/47/57
f 33/43/58 36/50/58 35/49/58
f 37/48/59 36/50/59 33/43/59
f 39/51/60 38/47/60 35/49/60
f 42/52/61 38/47/61 39/51/61
f 40/53/62 34/46/62 38/47/62
f 38/47/63 41/54/63 40/53/63
f 42/52/64 41/54/64 38/47/64
f 43/55/65 42/52/65 39/51/65
f 42/56/66 43/57/66 44/58/66
f 42/56/67 44/58/67 41/59/67
f 44/58/68 45/60/68 41/59/68
f 45/60/69 44/58/69 47/61/69
f 44/58/70 46/62/70 47/61/70
f 46/62/71 44/58/71 43/57/71
f 35/63/72 45/60/72 47/61/72
f 47/64/73 39/51/73 35/49/73
f 47/61/74 46/62/74 49/65/74
f 48/66/75 39/51/75 47/64/75
f 47/64/76 49/67/76 48/66/76
f 46/62/77 50/68/77 49/65/77
f 49/67/78 50/69/78 48/66/78
f 46/62/79 43/57/79 50/68/79
f 48/66/80 50/69/80 43/55/80
f 48/66/81 43/55/81 39/51/81
f 51/70/82 41/59/82 45/60/82
f 45/60/83 35/63/83 36/71/83
f 36/71/84 51/70/84 45/60/84
f 53/72/85 51/70/85 52/73/85
f 52/73/86 51/70/86 36/71/86
f 53/72/87 41/59/87 51/70/87
f 36/71/88 53/72/88 52/73/88
f 37/74/89 53/72/89 36/71/89
f 25/36/90 41/59/90 53/72/90
f 37/74/91 25/36/91 53/72/91
f 41/59/92 27/33/92 54/75/92
f 41/59/93 54/75/93 40/76/93
f 41/59/94 25/36/94 27/33/94
f 40/76/95 54/75/95 55/77/95
f 55/77/96 54/75/96 56/78/96
f 21/29/97 54/75/97 27/33/97
f 54/75/98 21/29/98 56/78/98
f 56/79/99 34/46/99 55/80/99
f 18/22/100 34/46/100 56/79/100
f 21/29/101 15/28/101 56/78/101
f 56/79/102 15/23/102 18/22/102
f 40/53/103 55/80/103 34/46/103
f 32/45/104 25/36/104 37/74/104
f 18/22/105 17/25/105 34/46/105
f 11/14/106 23/31/106 29/38/106
f 11/14/107 29/38/107 14/39/107
f 10/13/108 5/9/108 7/11/108
