# Blender 4.3.2
# www.blender.org
mtllib RUBBLE_PART3.mtl
o RUBBLE_PART3
v -1.074599 0.251720 0.530208
v -0.636217 0.269458 0.992757
v -1.081598 0.116587 0.148504
v -0.607499 0.294384 0.496451
v -1.020131 0.183682 0.096847
v -1.055458 0.075639 0.626245
v -0.565367 0.039981 0.531797
v -0.629667 0.050813 0.987311
v 0.353958 0.085676 2.739606
v 0.036297 0.157870 2.600287
v -0.817450 0.024966 1.814112
v -0.059410 0.112983 0.600935
v -0.747206 0.069782 1.353542
v -0.731539 0.250901 1.318127
v -0.880608 0.263518 2.199170
v -0.412953 0.307864 1.894141
v 0.073762 0.204675 2.580730
v 0.468271 0.219493 1.443023
v -0.206204 0.173229 -0.751713
v -0.709388 0.288716 2.530853
v -0.937986 0.301209 2.813823
v -0.374852 0.166874 2.769262
v -0.665287 0.065860 2.810628
v -0.213713 0.131428 3.177792
v -0.224203 0.204154 3.152403
v 0.164183 0.236827 3.280889
v 0.444970 0.276692 3.135927
v 0.219632 0.128059 3.274485
v 0.546700 0.092311 2.962821
v 0.535216 0.015735 0.029646
v 0.537123 0.312342 -0.082792
v 0.434258 0.111356 -0.969797
v 0.388608 0.034156 -2.972118
v -0.191462 0.077232 -1.590546
v -0.456812 -0.032409 -2.097420
v -0.406354 0.169829 -0.862854
v -0.757612 0.119439 -0.988426
v 0.073213 0.101649 -2.881335
v -0.001163 0.221397 -2.939579
v -0.321393 0.054728 -2.963832
v 0.383599 0.260730 -3.012973
v -0.108754 0.278879 -1.927944
v -0.441151 0.349621 -2.107172
v -0.492606 0.201756 -1.384031
v -0.718142 0.232346 -0.468571
v -0.784217 0.196903 -1.045596
v -0.735561 0.182042 -0.088996
v -0.923257 0.232391 -1.465112
v -0.848658 0.065267 -1.915796
v -0.949386 0.044778 -1.467963
v -1.048079 0.220056 -0.926530
v -1.188194 0.073006 -1.443717
v -1.159837 0.254400 -1.396546
v -0.872244 0.238349 -2.024657
v -1.150555 0.247986 -2.207709
v -0.794693 0.155998 -2.724766
v -1.106958 0.107578 -2.209604
v -0.467317 0.215322 -2.855987
v -1.047036 0.093636 -0.900121
v -0.736316 0.123164 -0.104628
v -0.910127 0.063053 2.682594
vn -0.7020 0.2807 0.6545
vn -0.0876 0.9951 0.0449
vn -0.9955 -0.0824 0.0474
vn -0.7925 0.5793 -0.1906
vn -0.1016 0.9807 -0.1668
vn -0.0877 -0.9929 -0.0803
vn -0.0699 -0.9975 0.0139
vn -0.6476 -0.0384 0.7610
vn 0.0884 -0.9956 -0.0298
vn -0.2937 -0.9381 0.1835
vn 0.1508 -0.9886 0.0033
vn -0.9591 -0.0217 -0.2822
vn -0.6530 -0.7377 -0.1714
vn 0.1369 -0.9897 0.0429
vn -0.9516 0.0224 -0.3066
vn -0.1162 0.9926 -0.0339
vn -0.9859 0.0084 -0.1669
vn -0.9878 0.0571 -0.1451
vn -0.1812 0.9834 0.0030
vn 0.0254 0.9985 -0.0488
vn 0.1287 0.9900 0.0575
vn 0.1015 0.9918 0.0771
vn 0.0770 0.9960 -0.0447
vn -0.1074 0.9940 -0.0201
vn -0.0240 0.9977 -0.0634
vn 0.2407 0.9586 0.1521
vn 0.0761 0.9271 0.3670
vn 0.1037 0.1068 0.9889
vn 0.3045 -0.5598 0.7707
vn -0.0494 -0.9965 -0.0670
vn -0.9304 -0.0063 0.3664
vn -0.1066 0.9928 -0.0547
vn -0.3228 0.2701 0.9071
vn -0.0718 0.9968 -0.0365
vn 0.4331 0.1687 0.8854
vn -0.1534 0.9878 -0.0255
vn -0.2160 -0.1667 0.9621
vn 0.6379 -0.3099 0.7050
vn -0.0443 -0.9967 0.0679
vn -0.2297 -0.9731 0.0194
vn 0.0022 -0.9990 -0.0448
vn 0.0633 -0.9977 -0.0250
vn -0.1366 -0.9903 0.0264
vn 0.9171 0.3984 -0.0140
vn 0.8738 0.4862 -0.0044
vn 0.9989 0.0109 0.0457
vn 0.9934 -0.0461 -0.1048
vn -0.2262 -0.9715 -0.0701
vn 0.8960 -0.4440 -0.0033
vn 0.0166 -0.9991 0.0381
vn 0.0408 -0.9991 0.0138
vn 0.3069 -0.9507 0.0450
vn 0.0981 -0.9821 0.1611
vn -0.2977 -0.9541 0.0335
vn 0.0873 -0.9847 0.1511
vn -0.2266 -0.9718 -0.0649
vn -0.3068 -0.1755 -0.9355
vn -0.1145 -0.4911 -0.8635
vn 0.2296 -0.3067 -0.9237
vn 0.1339 -0.9879 -0.0784
vn -0.1769 0.9842 -0.0081
vn 0.9985 0.0126 -0.0525
vn -0.1144 0.9911 -0.0685
vn 0.2745 0.9555 0.1086
vn 0.2243 0.9740 -0.0315
vn -0.0829 0.9932 0.0823
vn 0.0962 0.9738 0.2060
vn -0.0773 0.9956 -0.0523
vn 0.6322 0.7638 0.1302
vn 0.0315 0.9788 0.2024
vn 0.0587 0.9962 0.0648
vn -0.4530 0.8887 -0.0714
vn 0.1804 0.9829 -0.0374
vn -0.9774 -0.1905 -0.0911
vn -0.9676 0.1380 -0.2113
vn -0.0976 0.0287 -0.9948
vn 0.1088 0.9929 0.0479
vn 0.1061 0.9932 0.0473
vn -0.2522 0.9676 -0.0127
vn -0.2432 0.2796 -0.9288
vn -0.5449 -0.1802 0.8189
vn 0.1033 0.9891 -0.1049
vn -0.2302 0.9632 -0.1388
vn -0.6895 0.3159 0.6517
vn -0.2754 0.9479 -0.1604
vn -0.1638 0.4430 -0.8814
vn -0.0442 0.9836 -0.1749
vn -0.3980 0.2341 -0.8870
vn -0.0334 -0.9930 -0.1136
vn -0.8182 -0.2470 -0.5192
vn -0.2676 -0.9554 -0.1250
vn -0.9714 0.0409 0.2340
vn -0.9651 0.0866 0.2473
vn 0.1202 -0.9871 0.1056
vn 0.2697 0.1990 0.9421
vn -0.1105 -0.9917 0.0663
vn 0.3645 0.6308 0.6850
vn -0.2874 -0.9517 -0.1082
vn 0.0277 -0.9893 0.1430
vn -0.3008 -0.9431 -0.1419
vn -0.9988 0.0241 -0.0426
vn -0.5320 0.2236 -0.8167
vn -0.1026 0.9808 -0.1658
vn 0.1417 -0.9899 0.0008
vn -0.9714 0.2364 0.0224
vn -0.0973 -0.9899 -0.1033
vn -0.0636 -0.9916 -0.1125
vn -0.5883 -0.0805 -0.8046
vn -0.9631 -0.2386 0.1249
vn 0.1524 -0.9855 -0.0744
vn -0.2262 0.9729 0.0490
vn -0.1391 0.9896 -0.0354
vn 0.1359 -0.9905 0.0199
vn -0.0109 -0.9990 0.0427
vn -0.4029 -0.4774 0.7809
vn -0.9900 -0.0986 -0.1013
vn -0.9938 -0.0674 -0.0886
vn 0.4865 0.8707 0.0719
vt 0.154317 0.575342
vt 0.116745 0.632446
vt 0.145563 0.556977
vt 0.112748 0.554424
vt 0.152468 0.501865
vt 0.144761 0.496502
vt 0.237881 0.408415
vt 0.274087 0.398206
vt 0.274440 0.468608
vt 0.244149 0.342424
vt 0.132991 0.640986
vt 0.200666 0.395001
vt 0.178758 0.077903
vt 0.202527 0.099435
vt 0.261971 0.223192
vt 0.120620 0.688619
vt 0.141224 0.760246
vt 0.133604 0.693267
vt 0.095717 0.771047
vt 0.126790 0.816675
vt 0.081996 0.358732
vt 0.026960 0.704077
vt 0.064114 0.873762
vt 0.116674 0.855371
vt 0.127617 0.875796
vt 0.100705 0.895440
vt 0.122313 0.899289
vt 0.232766 0.074842
vt 0.255448 0.075878
vt 0.221302 0.014935
vt 0.089832 0.961175
vt 0.092872 0.972700
vt 0.059378 0.984070
vt 0.040899 0.962666
vt 0.053175 1.000000
vt 0.023548 0.950531
vt 0.165305 0.044082
vt 0.189770 -0.000000
vt 0.154317 0.473975
vt -0.000000 0.477412
vt 0.023047 0.459559
vt 0.015403 0.317687
vt 0.158869 0.621388
vt 0.033347 0.006508
vt 0.154317 0.914917
vt 0.202359 0.717100
vt 0.220616 0.793975
vt 0.178234 0.904338
vt 0.246504 0.633128
vt 0.221234 0.611651
vt 0.041986 0.017475
vt 0.059891 0.000000
vt 0.066660 0.024085
vt 0.095099 0.006027
vt 0.207063 0.919393
vt 0.076078 0.178197
vt 0.100690 0.150976
vt 0.104918 0.260847
vt 0.127794 0.308033
vt 0.122847 0.400673
vt 0.124859 0.462997
vt 0.136529 0.248240
vt 0.144694 0.180076
vt 0.133446 0.161034
vt 0.148219 0.240746
vt 0.154317 0.260812
vt 0.142664 0.310867
vt 0.146469 0.264307
vt 0.147047 0.132747
vt 0.151828 0.132168
vt 0.127248 0.062437
vt 0.102483 0.040719
vt 0.250820 0.771359
vt 0.268625 0.816729
vt 0.243818 0.890116
vt 0.145846 0.318031
vt 0.268166 0.622725
vt 0.258945 0.705532
vt 0.131519 0.319486
vt 0.276643 0.703417
vt 0.129256 0.457713
vt 0.248298 0.503353
vt 0.272767 0.096872
vt 0.136086 0.877780
s 0
usemtl CONCRETE
f 6/1/1 2/2/1 1/3/1
f 2/2/2 4/4/2 1/3/2
f 1/3/3 3/5/3 6/1/3
f 1/3/4 5/6/4 3/5/4
f 1/3/5 4/4/5 5/6/5
f 7/7/6 6/8/6 3/9/6
f 8/10/7 6/8/7 7/7/7
f 8/11/8 2/2/8 6/1/8
f 12/12/9 9/13/9 8/10/9
f 9/13/10 10/14/10 8/10/10
f 10/14/11 11/15/11 8/10/11
f 14/16/12 2/2/12 8/11/12
f 8/11/13 11/17/13 13/18/13
f 7/7/14 12/12/14 8/10/14
f 14/16/15 8/11/15 13/18/15
f 16/19/16 14/16/16 15/20/16
f 11/17/17 15/20/17 14/16/17
f 11/17/18 14/16/18 13/18/18
f 16/19/19 2/2/19 14/16/19
f 19/21/20 2/2/20 16/19/20
f 18/22/21 16/19/21 17/23/21
f 17/23/22 16/19/22 20/24/22
f 18/22/23 19/21/23 16/19/23
f 20/24/24 16/19/24 15/20/24
f 20/24/25 15/20/25 21/25/25
f 22/26/26 20/24/26 21/25/26
f 17/23/27 20/24/27 22/26/27
f 23/27/28 22/26/28 21/25/28
f 10/14/29 22/28/29 23/29/29
f 10/14/30 24/30/30 22/28/30
f 25/31/31 22/26/31 24/32/31
f 25/31/32 17/23/32 22/26/32
f 26/33/33 25/31/33 24/32/33
f 26/33/34 17/23/34 25/31/34
f 27/34/35 26/33/35 28/35/35
f 27/34/36 17/23/36 26/33/36
f 26/33/37 24/32/37 28/35/37
f 27/34/38 28/35/38 29/36/38
f 29/37/39 28/38/39 9/13/39
f 9/13/40 28/38/40 10/14/40
f 28/38/41 24/30/41 10/14/41
f 12/12/42 29/37/42 9/13/42
f 30/39/43 29/37/43 12/12/43
f 18/22/44 29/36/44 30/40/44
f 18/22/45 27/34/45 29/36/45
f 31/41/46 18/22/46 30/40/46
f 32/42/47 31/41/47 30/40/47
f 32/43/48 30/39/48 12/12/48
f 33/44/49 31/41/49 32/42/49
f 33/45/50 32/43/50 34/46/50
f 34/46/51 32/43/51 12/12/51
f 35/47/52 38/48/52 34/46/52
f 37/49/53 35/47/53 34/46/53
f 34/46/54 12/12/54 36/50/54
f 36/50/55 37/49/55 34/46/55
f 38/48/56 33/45/56 34/46/56
f 41/51/57 33/44/57 38/52/57
f 39/53/58 41/51/58 38/52/58
f 40/54/59 39/53/59 38/52/59
f 40/55/60 38/48/60 35/47/60
f 31/41/61 41/51/61 19/21/61
f 41/51/62 31/41/62 33/44/62
f 39/53/63 42/56/63 41/51/63
f 41/51/64 42/56/64 19/21/64
f 39/53/65 43/57/65 42/56/65
f 42/56/66 44/58/66 19/21/66
f 43/57/67 44/58/67 42/56/67
f 46/59/68 45/60/68 44/58/68
f 45/60/69 47/61/69 44/58/69
f 43/57/70 48/62/70 44/58/70
f 48/62/71 46/59/71 44/58/71
f 44/58/72 47/61/72 4/4/72
f 44/58/73 4/4/73 19/21/73
f 49/63/74 48/62/74 54/64/74
f 50/65/75 48/62/75 49/63/75
f 52/66/76 48/62/76 50/65/76
f 51/67/77 46/59/77 48/62/77
f 51/67/78 48/62/78 53/68/78
f 54/64/79 48/62/79 43/57/79
f 53/68/80 48/62/80 52/66/80
f 54/64/81 55/69/81 57/70/81
f 55/69/82 54/64/82 56/71/82
f 58/72/83 56/71/83 54/64/83
f 54/64/84 57/70/84 49/63/84
f 58/72/85 54/64/85 43/57/85
f 58/72/86 39/53/86 40/54/86
f 39/53/87 58/72/87 43/57/87
f 56/71/88 58/72/88 40/54/88
f 49/73/89 57/74/89 56/75/89
f 57/70/90 55/69/90 56/71/90
f 56/75/91 40/55/91 49/73/91
f 59/76/92 51/67/92 53/68/92
f 59/76/93 53/68/93 52/66/93
f 37/49/94 59/77/94 50/78/94
f 37/79/95 51/67/95 59/76/95
f 59/77/96 52/80/96 50/78/96
f 46/59/97 51/67/97 37/79/97
f 49/73/98 35/47/98 50/78/98
f 37/49/99 50/78/99 35/47/99
f 49/73/100 40/55/100 35/47/100
f 60/81/101 47/61/101 45/60/101
f 60/81/102 5/6/102 47/61/102
f 4/4/103 47/61/103 5/6/103
f 60/82/104 37/49/104 36/50/104
f 60/81/105 45/60/105 37/79/105
f 60/82/106 36/50/106 7/7/106
f 7/7/107 3/9/107 60/82/107
f 5/6/108 60/81/108 3/5/108
f 45/60/109 46/59/109 37/79/109
f 36/50/110 12/12/110 7/7/110
f 18/22/111 31/41/111 19/21/111
f 18/22/112 17/23/112 27/34/112
f 11/15/113 10/14/113 23/29/113
f 23/29/114 61/83/114 11/15/114
f 21/25/115 61/84/115 23/27/115
f 61/84/116 15/20/116 11/17/116
f 61/84/117 21/25/117 15/20/117
f 19/21/118 4/4/118 2/2/118
